<svg width="16" height="17" viewBox="0 0 16 17" fill="#A5A9BC" xmlns="http://www.w3.org/2000/svg">
<path d="M15.9168 13.8333V9.33643C15.9168 7.95288 15.9168 7.26111 15.7446 6.622C15.581 6.01506 15.3045 5.4444 14.9295 4.93994C14.5346 4.40874 13.9916 3.98009 12.9057 3.12278L12.9057 3.12278L12.9057 3.12277C11.1843 1.76379 10.3236 1.0843 9.37451 0.812971C8.47627 0.556181 7.52405 0.556181 6.62581 0.812971C5.67672 1.0843 4.81603 1.76379 3.09465 3.12278C2.00872 3.98009 1.46576 4.40874 1.07086 4.93994C0.695828 5.4444 0.419286 6.01506 0.255724 6.622C0.0834961 7.26111 0.0834961 7.95288 0.0834961 9.33643V13.8333C0.0834961 14.298 0.0834961 14.5303 0.121926 14.7235C0.279739 15.5169 0.899934 16.1371 1.69332 16.2949C1.88651 16.3333 2.11884 16.3333 2.5835 16.3333H3.31266C4.29067 16.3333 5.0835 15.5405 5.0835 14.5625V12.1667C5.0835 10.5558 6.38933 9.25 8.00016 9.25C9.61099 9.25 10.9168 10.5558 10.9168 12.1667V14.5625C10.9168 15.5405 11.7097 16.3333 12.6877 16.3333H13.4168C13.8815 16.3333 14.1138 16.3333 14.307 16.2949C15.1004 16.1371 15.7206 15.5169 15.8784 14.7235C15.9168 14.5303 15.9168 14.298 15.9168 13.8333Z"/>
</svg>
