<svg width="18" height="18" viewBox="0 0 18 18" fill="none" xmlns="http://www.w3.org/2000/svg">
<path d="M10 6V5.4C10 4.55992 10 4.13988 9.83651 3.81901C9.6927 3.53677 9.46323 3.3073 9.18099 3.16349C8.86012 3 8.44008 3 7.6 3H5.4C4.55992 3 4.13988 3 3.81901 3.16349C3.53677 3.3073 3.3073 3.53677 3.16349 3.81901C3 4.13988 3 4.55992 3 5.4V12.6C3 13.4401 3 13.8601 3.16349 14.181C3.3073 14.4632 3.53677 14.6927 3.81901 14.8365C4.13988 15 4.55992 15 5.4 15H7.6C8.44008 15 8.86012 15 9.18099 14.8365C9.46323 14.6927 9.6927 14.4632 9.83651 14.181C10 13.8601 10 13.4401 10 12.6V12M7 9H16M16 9L13 12M16 9L13 6" stroke="#6E798C" stroke-width="1.5" stroke-linecap="round" stroke-linejoin="round"/>
</svg>
