<svg width="20" height="20" viewBox="0 0 20 20" fill="none" xmlns="http://www.w3.org/2000/svg">
<path fill-rule="evenodd" clip-rule="evenodd" d="M9.74397 18.2977C14.1456 18.4329 17.8926 15.1201 18.2979 10.7351C18.3641 10.0183 17.5516 9.56042 16.9727 9.98831C14.9824 11.4595 12.2153 11.2531 10.4652 9.50302C8.71507 7.75291 8.50872 4.98577 9.97989 2.99545C10.4078 2.41658 9.94985 1.60407 9.23306 1.67031C4.84806 2.07554 1.53525 5.82261 1.6705 10.2242C1.80575 14.6258 5.34235 18.1624 9.74397 18.2977ZM7.73111 3.69815C6.86982 6.07701 7.41883 8.8137 9.28666 10.6815C11.1545 12.5494 13.8912 13.0984 16.27 12.2371C15.3123 14.8881 12.7364 16.7222 9.79516 16.6318C6.27387 16.5236 3.44458 13.6943 3.33638 10.173C3.24601 7.23181 5.08012 4.65592 7.73111 3.69815Z" fill="#262F56"/>
<mask id="mask0" mask-type="alpha" maskUnits="userSpaceOnUse" x="1" y="1" width="18" height="18">
<path fill-rule="evenodd" clip-rule="evenodd" d="M9.74397 18.2977C14.1456 18.4329 17.8926 15.1201 18.2979 10.7351C18.3641 10.0183 17.5516 9.56042 16.9727 9.98831C14.9824 11.4595 12.2153 11.2531 10.4652 9.50302C8.71507 7.75291 8.50872 4.98577 9.97989 2.99545C10.4078 2.41658 9.94985 1.60407 9.23306 1.67031C4.84806 2.07554 1.53525 5.82261 1.6705 10.2242C1.80575 14.6258 5.34235 18.1624 9.74397 18.2977ZM7.73111 3.69815C6.86982 6.07701 7.41883 8.8137 9.28666 10.6815C11.1545 12.5494 13.8912 13.0984 16.27 12.2371C15.3123 14.8881 12.7364 16.7222 9.79516 16.6318C6.27387 16.5236 3.44458 13.6943 3.33638 10.173C3.24601 7.23181 5.08012 4.65592 7.73111 3.69815Z" fill="white"/>
</mask>
<g mask="url(#mask0)">
<rect width="20" height="20" fill="#262F56"/>
</g>
</svg>
